<svg id="visual" viewBox="0 0 900 300" width="900" height="300" xmlns="http://www.w3.org/2000/svg" xmlns:xlink="http://www.w3.org/1999/xlink" version="1.1"><path d="M0 171L18.8 169.2C37.7 167.3 75.3 163.7 112.8 161.7C150.3 159.7 187.7 159.3 225.2 153C262.7 146.7 300.3 134.3 337.8 130.8C375.3 127.3 412.7 132.7 450.2 134.3C487.7 136 525.3 134 562.8 130.7C600.3 127.3 637.7 122.7 675.2 124.7C712.7 126.7 750.3 135.3 787.8 145.8C825.3 156.3 862.7 168.7 881.3 174.8L900 181L900 301L881.3 301C862.7 301 825.3 301 787.8 301C750.3 301 712.7 301 675.2 301C637.7 301 600.3 301 562.8 301C525.3 301 487.7 301 450.2 301C412.7 301 375.3 301 337.8 301C300.3 301 262.7 301 225.2 301C187.7 301 150.3 301 112.8 301C75.3 301 37.7 301 18.8 301L0 301Z" fill="#4ee2e4"></path><path d="M0 200L18.8 194.3C37.7 188.7 75.3 177.3 112.8 172.5C150.3 167.7 187.7 169.3 225.2 166.5C262.7 163.7 300.3 156.3 337.8 156.5C375.3 156.7 412.7 164.3 450.2 174.2C487.7 184 525.3 196 562.8 198.3C600.3 200.7 637.7 193.3 675.2 192.8C712.7 192.3 750.3 198.7 787.8 192.3C825.3 186 862.7 167 881.3 157.5L900 148L900 301L881.3 301C862.7 301 825.3 301 787.8 301C750.3 301 712.7 301 675.2 301C637.7 301 600.3 301 562.8 301C525.3 301 487.7 301 450.2 301C412.7 301 375.3 301 337.8 301C300.3 301 262.7 301 225.2 301C187.7 301 150.3 301 112.8 301C75.3 301 37.7 301 18.8 301L0 301Z" fill="#18d0e9"></path><path d="M0 186L18.8 187.2C37.7 188.3 75.3 190.7 112.8 190.2C150.3 189.7 187.7 186.3 225.2 184.5C262.7 182.7 300.3 182.3 337.8 185C375.3 187.7 412.7 193.3 450.2 195.8C487.7 198.3 525.3 197.7 562.8 197.8C600.3 198 637.7 199 675.2 199.8C712.7 200.7 750.3 201.3 787.8 204.3C825.3 207.3 862.7 212.7 881.3 215.3L900 218L900 301L881.3 301C862.7 301 825.3 301 787.8 301C750.3 301 712.7 301 675.2 301C637.7 301 600.3 301 562.8 301C525.3 301 487.7 301 450.2 301C412.7 301 375.3 301 337.8 301C300.3 301 262.7 301 225.2 301C187.7 301 150.3 301 112.8 301C75.3 301 37.7 301 18.8 301L0 301Z" fill="#00bcea"></path><path d="M0 235L18.8 229.3C37.7 223.7 75.3 212.3 112.8 210.3C150.3 208.3 187.7 215.7 225.2 217.3C262.7 219 300.3 215 337.8 217.7C375.3 220.3 412.7 229.7 450.2 234.2C487.7 238.7 525.3 238.3 562.8 234.2C600.3 230 637.7 222 675.2 219.7C712.7 217.3 750.3 220.7 787.8 223.7C825.3 226.7 862.7 229.3 881.3 230.7L900 232L900 301L881.3 301C862.7 301 825.3 301 787.8 301C750.3 301 712.7 301 675.2 301C637.7 301 600.3 301 562.8 301C525.3 301 487.7 301 450.2 301C412.7 301 375.3 301 337.8 301C300.3 301 262.7 301 225.2 301C187.7 301 150.3 301 112.8 301C75.3 301 37.7 301 18.8 301L0 301Z" fill="#00a7e7"></path><path d="M0 259L18.8 256.5C37.7 254 75.3 249 112.8 244.2C150.3 239.3 187.7 234.7 225.2 233.7C262.7 232.7 300.3 235.3 337.8 238C375.3 240.7 412.7 243.3 450.2 244.3C487.7 245.3 525.3 244.7 562.8 241C600.3 237.3 637.7 230.7 675.2 230C712.7 229.3 750.3 234.7 787.8 240.3C825.3 246 862.7 252 881.3 255L900 258L900 301L881.3 301C862.7 301 825.3 301 787.8 301C750.3 301 712.7 301 675.2 301C637.7 301 600.3 301 562.8 301C525.3 301 487.7 301 450.2 301C412.7 301 375.3 301 337.8 301C300.3 301 262.7 301 225.2 301C187.7 301 150.3 301 112.8 301C75.3 301 37.7 301 18.8 301L0 301Z" fill="#1691df"></path><path d="M0 259L18.8 261.5C37.7 264 75.3 269 112.8 268.8C150.3 268.7 187.7 263.3 225.2 260.8C262.7 258.3 300.3 258.7 337.8 258.7C375.3 258.7 412.7 258.3 450.2 257.2C487.7 256 525.3 254 562.8 256.3C600.3 258.7 637.7 265.3 675.2 268.8C712.7 272.3 750.3 272.7 787.8 270.2C825.3 267.7 862.7 262.3 881.3 259.7L900 257L900 301L881.3 301C862.7 301 825.3 301 787.8 301C750.3 301 712.7 301 675.2 301C637.7 301 600.3 301 562.8 301C525.3 301 487.7 301 450.2 301C412.7 301 375.3 301 337.8 301C300.3 301 262.7 301 225.2 301C187.7 301 150.3 301 112.8 301C75.3 301 37.7 301 18.8 301L0 301Z" fill="#3d7ad2"></path></svg>